<svg width="20" height="20" viewBox="0 0 20 20" fill="none" xmlns="http://www.w3.org/2000/svg">
<g clip-path="url(#clip0_3_98)">
<path d="M15.6514 10.8193V17.9832H4.34889V10.6722H3.08838V18.6134C3.08838 18.9615 3.37053 19.2436 3.71861 19.2436H16.2817C16.6298 19.2436 16.9119 18.9615 16.9119 18.6134V10.8193H15.6514Z" fill="white"/>
<path d="M19.998 9.63454C19.9842 9.46102 19.8991 9.3009 19.7629 9.19231L10.3932 1.71329C10.1629 1.52965 9.83665 1.52965 9.60685 1.71329L0.23708 9.19231C0.100947 9.3009 0.015869 9.46102 0.00200184 9.63454C-0.0118653 9.80805 0.0467675 9.97969 0.16376 10.1085L2.03353 12.1673C2.15747 12.3039 2.32849 12.3738 2.50032 12.3738C2.63876 12.3738 2.77825 12.3282 2.89403 12.2356L10.0001 6.54274L17.1058 12.2356C17.3661 12.4432 17.7428 12.4141 17.9665 12.1673L19.8363 10.1085C19.9535 9.97969 20.0119 9.80805 19.998 9.63454ZM17.4317 10.8812L10.394 5.24336C10.2791 5.15114 10.1396 5.10493 10.0001 5.10493C9.86064 5.10493 9.72114 5.15114 9.60603 5.24336L2.56817 10.8812L1.54845 9.75825L10.0001 3.01204L18.4516 9.75825L17.4317 10.8812Z" fill="white"/>
<path d="M15.8405 0.756348H13.3613C13.0131 0.756348 12.731 1.0385 12.731 1.38658V4.95803H13.9915V2.01682H15.2102V6.84873H16.4707V1.38658C16.4707 1.03846 16.1886 0.756348 15.8405 0.756348Z" fill="white"/>
<path d="M10.0001 10.8192C9.65198 10.8192 9.36987 11.1014 9.36987 11.4494V15.6932C9.36987 16.0413 9.65202 16.3234 10.0001 16.3234C10.3482 16.3234 10.6301 16.0412 10.6303 15.6932V11.4494C10.6303 11.1014 10.3482 10.8192 10.0001 10.8192Z" fill="white"/>
<path d="M12.122 12.941H7.87828C7.53016 12.941 7.24805 13.2232 7.24805 13.5713C7.24805 13.9194 7.5302 14.2015 7.87828 14.2015H12.122C12.4701 14.2015 12.7522 13.9194 12.7522 13.5713C12.7522 13.2232 12.4701 12.941 12.122 12.941Z" fill="white"/>
</g>
<defs>
<clipPath id="clip0_3_98">
<rect width="20" height="20" fill="white"/>
</clipPath>
</defs>
</svg>
