<svg width="606" height="154" viewBox="0 0 606 154" fill="none" xmlns="http://www.w3.org/2000/svg">
<path d="M19.76 4.92V10.4H8.32V16.32H16.88V21.64H8.32V33H1.48V4.92H19.76ZM26.795 8.36C25.595 8.36 24.6083 8.01333 23.835 7.32C23.0883 6.6 22.715 5.72 22.715 4.68C22.715 3.61333 23.0883 2.73333 23.835 2.04C24.6083 1.32 25.595 0.959998 26.795 0.959998C27.9683 0.959998 28.9283 1.32 29.675 2.04C30.4483 2.73333 30.835 3.61333 30.835 4.68C30.835 5.72 30.4483 6.6 29.675 7.32C28.9283 8.01333 27.9683 8.36 26.795 8.36ZM30.195 10.68V33H23.355V10.68H30.195ZM48.7519 10.44C51.3652 10.44 53.4452 11.2933 54.9919 13C56.5652 14.68 57.3519 17 57.3519 19.96V33H50.5519V20.88C50.5519 19.3867 50.1652 18.2267 49.3919 17.4C48.6185 16.5733 47.5785 16.16 46.2719 16.16C44.9652 16.16 43.9252 16.5733 43.1519 17.4C42.3785 18.2267 41.9919 19.3867 41.9919 20.88V33H35.1519V10.68H41.9919V13.64C42.6852 12.6533 43.6185 11.88 44.7919 11.32C45.9652 10.7333 47.2852 10.44 48.7519 10.44ZM60.745 21.8C60.745 19.5067 61.1717 17.4933 62.025 15.76C62.905 14.0267 64.0917 12.6933 65.585 11.76C67.0783 10.8267 68.745 10.36 70.585 10.36C72.0517 10.36 73.385 10.6667 74.585 11.28C75.8117 11.8933 76.7717 12.72 77.465 13.76V3.4H84.305V33H77.465V29.8C76.825 30.8667 75.905 31.72 74.705 32.36C73.5317 33 72.1583 33.32 70.585 33.32C68.745 33.32 67.0783 32.8533 65.585 31.92C64.0917 30.96 62.905 29.6133 62.025 27.88C61.1717 26.12 60.745 24.0933 60.745 21.8ZM77.465 21.84C77.465 20.1333 76.985 18.7867 76.025 17.8C75.0917 16.8133 73.945 16.32 72.585 16.32C71.225 16.32 70.065 16.8133 69.105 17.8C68.1717 18.76 67.705 20.0933 67.705 21.8C67.705 23.5067 68.1717 24.8667 69.105 25.88C70.065 26.8667 71.225 27.36 72.585 27.36C73.945 27.36 75.0917 26.8667 76.025 25.88C76.985 24.8933 77.465 23.5467 77.465 21.84ZM120.53 10.68L106.53 43.6H99.17L104.29 32.24L95.21 10.68H102.85L108.01 24.64L113.13 10.68H120.53ZM133.163 33.32C130.977 33.32 129.003 32.8533 127.243 31.92C125.51 30.9867 124.137 29.6533 123.123 27.92C122.137 26.1867 121.643 24.16 121.643 21.84C121.643 19.5467 122.15 17.5333 123.163 15.8C124.177 14.04 125.563 12.6933 127.323 11.76C129.083 10.8267 131.057 10.36 133.243 10.36C135.43 10.36 137.403 10.8267 139.163 11.76C140.923 12.6933 142.31 14.04 143.323 15.8C144.337 17.5333 144.843 19.5467 144.843 21.84C144.843 24.1333 144.323 26.16 143.283 27.92C142.27 29.6533 140.87 30.9867 139.083 31.92C137.323 32.8533 135.35 33.32 133.163 33.32ZM133.163 27.4C134.47 27.4 135.577 26.92 136.483 25.96C137.417 25 137.883 23.6267 137.883 21.84C137.883 20.0533 137.43 18.68 136.523 17.72C135.643 16.76 134.55 16.28 133.243 16.28C131.91 16.28 130.803 16.76 129.923 17.72C129.043 18.6533 128.603 20.0267 128.603 21.84C128.603 23.6267 129.03 25 129.883 25.96C130.763 26.92 131.857 27.4 133.163 27.4ZM170.512 10.68V33H163.672V29.96C162.979 30.9467 162.032 31.7467 160.832 32.36C159.659 32.9467 158.352 33.24 156.912 33.24C155.206 33.24 153.699 32.8667 152.392 32.12C151.086 31.3467 150.072 30.24 149.352 28.8C148.632 27.36 148.272 25.6667 148.272 23.72V10.68H155.072V22.8C155.072 24.2933 155.459 25.4533 156.232 26.28C157.006 27.1067 158.046 27.52 159.352 27.52C160.686 27.52 161.739 27.1067 162.512 26.28C163.286 25.4533 163.672 24.2933 163.672 22.8V10.68H170.512ZM182.265 14.4C183.065 13.1733 184.065 12.2133 185.265 11.52C186.465 10.8 187.799 10.44 189.265 10.44V17.68H187.385C185.679 17.68 184.399 18.0533 183.545 18.8C182.692 19.52 182.265 20.8 182.265 22.64V33H175.425V10.68H182.265V14.4ZM353.479 21.8C353.479 19.5067 353.906 17.4933 354.759 15.76C355.639 14.0267 356.826 12.6933 358.319 11.76C359.813 10.8267 361.479 10.36 363.319 10.36C364.893 10.36 366.266 10.68 367.439 11.32C368.639 11.96 369.559 12.8 370.199 13.84V10.68H377.039V33H370.199V29.84C369.533 30.88 368.599 31.72 367.399 32.36C366.226 33 364.853 33.32 363.279 33.32C361.466 33.32 359.813 32.8533 358.319 31.92C356.826 30.96 355.639 29.6133 354.759 27.88C353.906 26.12 353.479 24.0933 353.479 21.8ZM370.199 21.84C370.199 20.1333 369.719 18.7867 368.759 17.8C367.826 16.8133 366.679 16.32 365.319 16.32C363.959 16.32 362.799 16.8133 361.839 17.8C360.906 18.76 360.439 20.0933 360.439 21.8C360.439 23.5067 360.906 24.8667 361.839 25.88C362.799 26.8667 363.959 27.36 365.319 27.36C366.679 27.36 367.826 26.8667 368.759 25.88C369.719 24.8933 370.199 23.5467 370.199 21.84ZM395.588 10.44C398.201 10.44 400.281 11.2933 401.828 13C403.401 14.68 404.188 17 404.188 19.96V33H397.388V20.88C397.388 19.3867 397.001 18.2267 396.228 17.4C395.454 16.5733 394.414 16.16 393.108 16.16C391.801 16.16 390.761 16.5733 389.988 17.4C389.214 18.2267 388.828 19.3867 388.828 20.88V33H381.988V10.68H388.828V13.64C389.521 12.6533 390.454 11.88 391.628 11.32C392.801 10.7333 394.121 10.44 395.588 10.44ZM407.581 21.8C407.581 19.5067 408.008 17.4933 408.861 15.76C409.741 14.0267 410.928 12.6933 412.421 11.76C413.914 10.8267 415.581 10.36 417.421 10.36C418.888 10.36 420.221 10.6667 421.421 11.28C422.648 11.8933 423.608 12.72 424.301 13.76V3.4H431.141V33H424.301V29.8C423.661 30.8667 422.741 31.72 421.541 32.36C420.368 33 418.994 33.32 417.421 33.32C415.581 33.32 413.914 32.8533 412.421 31.92C410.928 30.96 409.741 29.6133 408.861 27.88C408.008 26.12 407.581 24.0933 407.581 21.8ZM424.301 21.84C424.301 20.1333 423.821 18.7867 422.861 17.8C421.928 16.8133 420.781 16.32 419.421 16.32C418.061 16.32 416.901 16.8133 415.941 17.8C415.008 18.76 414.541 20.0933 414.541 21.8C414.541 23.5067 415.008 24.8667 415.941 25.88C416.901 26.8667 418.061 27.36 419.421 27.36C420.781 27.36 421.928 26.8667 422.861 25.88C423.821 24.8933 424.301 23.5467 424.301 21.84ZM451.406 13.84C452.046 12.8 452.966 11.96 454.166 11.32C455.366 10.68 456.739 10.36 458.286 10.36C460.126 10.36 461.793 10.8267 463.286 11.76C464.779 12.6933 465.953 14.0267 466.806 15.76C467.686 17.4933 468.126 19.5067 468.126 21.8C468.126 24.0933 467.686 26.12 466.806 27.88C465.953 29.6133 464.779 30.96 463.286 31.92C461.793 32.8533 460.126 33.32 458.286 33.32C456.713 33.32 455.339 33.0133 454.166 32.4C452.993 31.76 452.073 30.92 451.406 29.88V33H444.566V3.4H451.406V13.84ZM461.166 21.8C461.166 20.0933 460.686 18.76 459.726 17.8C458.793 16.8133 457.633 16.32 456.246 16.32C454.886 16.32 453.726 16.8133 452.766 17.8C451.833 18.7867 451.366 20.1333 451.366 21.84C451.366 23.5467 451.833 24.8933 452.766 25.88C453.726 26.8667 454.886 27.36 456.246 27.36C457.606 27.36 458.766 26.8667 459.726 25.88C460.686 24.8667 461.166 23.5067 461.166 21.8ZM481.874 33.32C479.688 33.32 477.714 32.8533 475.954 31.92C474.221 30.9867 472.848 29.6533 471.834 27.92C470.848 26.1867 470.354 24.16 470.354 21.84C470.354 19.5467 470.861 17.5333 471.874 15.8C472.888 14.04 474.274 12.6933 476.034 11.76C477.794 10.8267 479.768 10.36 481.954 10.36C484.141 10.36 486.114 10.8267 487.874 11.76C489.634 12.6933 491.021 14.04 492.034 15.8C493.048 17.5333 493.554 19.5467 493.554 21.84C493.554 24.1333 493.034 26.16 491.994 27.92C490.981 29.6533 489.581 30.9867 487.794 31.92C486.034 32.8533 484.061 33.32 481.874 33.32ZM481.874 27.4C483.181 27.4 484.288 26.92 485.194 25.96C486.128 25 486.594 23.6267 486.594 21.84C486.594 20.0533 486.141 18.68 485.234 17.72C484.354 16.76 483.261 16.28 481.954 16.28C480.621 16.28 479.514 16.76 478.634 17.72C477.754 18.6533 477.314 20.0267 477.314 21.84C477.314 23.6267 477.741 25 478.594 25.96C479.474 26.92 480.568 27.4 481.874 27.4ZM507.343 33.32C505.156 33.32 503.183 32.8533 501.423 31.92C499.69 30.9867 498.316 29.6533 497.303 27.92C496.316 26.1867 495.823 24.16 495.823 21.84C495.823 19.5467 496.33 17.5333 497.343 15.8C498.356 14.04 499.743 12.6933 501.503 11.76C503.263 10.8267 505.236 10.36 507.423 10.36C509.61 10.36 511.583 10.8267 513.343 11.76C515.103 12.6933 516.49 14.04 517.503 15.8C518.516 17.5333 519.023 19.5467 519.023 21.84C519.023 24.1333 518.503 26.16 517.463 27.92C516.45 29.6533 515.05 30.9867 513.263 31.92C511.503 32.8533 509.53 33.32 507.343 33.32ZM507.343 27.4C508.65 27.4 509.756 26.92 510.663 25.96C511.596 25 512.063 23.6267 512.063 21.84C512.063 20.0533 511.61 18.68 510.703 17.72C509.823 16.76 508.73 16.28 507.423 16.28C506.09 16.28 504.983 16.76 504.103 17.72C503.223 18.6533 502.783 20.0267 502.783 21.84C502.783 23.6267 503.21 25 504.063 25.96C504.943 26.92 506.036 27.4 507.343 27.4ZM536.292 33L529.492 23.64V33H522.652V3.4H529.492V19.76L536.252 10.68H544.692L535.412 21.88L544.772 33H536.292ZM554.495 21.8C554.495 19.5067 554.922 17.4933 555.775 15.76C556.655 14.0267 557.842 12.6933 559.335 11.76C560.828 10.8267 562.495 10.36 564.335 10.36C565.908 10.36 567.282 10.68 568.455 11.32C569.655 11.96 570.575 12.8 571.215 13.84V10.68H578.055V33H571.215V29.84C570.548 30.88 569.615 31.72 568.415 32.36C567.242 33 565.868 33.32 564.295 33.32C562.482 33.32 560.828 32.8533 559.335 31.92C557.842 30.96 556.655 29.6133 555.775 27.88C554.922 26.12 554.495 24.0933 554.495 21.8ZM571.215 21.84C571.215 20.1333 570.735 18.7867 569.775 17.8C568.842 16.8133 567.695 16.32 566.335 16.32C564.975 16.32 563.815 16.8133 562.855 17.8C561.922 18.76 561.455 20.0933 561.455 21.8C561.455 23.5067 561.922 24.8667 562.855 25.88C563.815 26.8667 564.975 27.36 566.335 27.36C567.695 27.36 568.842 26.8667 569.775 25.88C570.735 24.8933 571.215 23.5467 571.215 21.84ZM596.603 10.44C599.217 10.44 601.297 11.2933 602.843 13C604.417 14.68 605.203 17 605.203 19.96V33H598.403V20.88C598.403 19.3867 598.017 18.2267 597.243 17.4C596.47 16.5733 595.43 16.16 594.123 16.16C592.817 16.16 591.777 16.5733 591.003 17.4C590.23 18.2267 589.843 19.3867 589.843 20.88V33H583.003V10.68H589.843V13.64C590.537 12.6533 591.47 11.88 592.643 11.32C593.817 10.7333 595.137 10.44 596.603 10.44ZM0.12 81.8C0.12 79.5067 0.546667 77.4933 1.4 75.76C2.28 74.0267 3.46667 72.6933 4.96 71.76C6.45333 70.8267 8.12 70.36 9.96 70.36C11.5333 70.36 12.9067 70.68 14.08 71.32C15.28 71.96 16.2 72.8 16.84 73.84V70.68H23.68V93H16.84V89.84C16.1733 90.88 15.24 91.72 14.04 92.36C12.8667 93 11.4933 93.32 9.92 93.32C8.10667 93.32 6.45333 92.8533 4.96 91.92C3.46667 90.96 2.28 89.6133 1.4 87.88C0.546667 86.12 0.12 84.0933 0.12 81.8ZM16.84 81.84C16.84 80.1333 16.36 78.7867 15.4 77.8C14.4667 76.8133 13.32 76.32 11.96 76.32C10.6 76.32 9.44 76.8133 8.48 77.8C7.54667 78.76 7.08 80.0933 7.08 81.8C7.08 83.5067 7.54667 84.8667 8.48 85.88C9.44 86.8667 10.6 87.36 11.96 87.36C13.32 87.36 14.4667 86.8667 15.4 85.88C16.36 84.8933 16.84 83.5467 16.84 81.84ZM35.4684 73.84C36.1351 72.8 37.0551 71.96 38.2284 71.32C39.4018 70.68 40.7751 70.36 42.3484 70.36C44.1884 70.36 45.8551 70.8267 47.3484 71.76C48.8418 72.6933 50.0151 74.0267 50.8684 75.76C51.7484 77.4933 52.1884 79.5067 52.1884 81.8C52.1884 84.0933 51.7484 86.12 50.8684 87.88C50.0151 89.6133 48.8418 90.96 47.3484 91.92C45.8551 92.8533 44.1884 93.32 42.3484 93.32C40.8018 93.32 39.4284 93 38.2284 92.36C37.0551 91.72 36.1351 90.8933 35.4684 89.88V103.64H28.6284V70.68H35.4684V73.84ZM45.2284 81.8C45.2284 80.0933 44.7484 78.76 43.7884 77.8C42.8551 76.8133 41.6951 76.32 40.3084 76.32C38.9484 76.32 37.7884 76.8133 36.8284 77.8C35.8951 78.7867 35.4284 80.1333 35.4284 81.84C35.4284 83.5467 35.8951 84.8933 36.8284 85.88C37.7884 86.8667 38.9484 87.36 40.3084 87.36C41.6684 87.36 42.8284 86.8667 43.7884 85.88C44.7484 84.8667 45.2284 83.5067 45.2284 81.8ZM62.6169 73.84C63.2835 72.8 64.2035 71.96 65.3769 71.32C66.5502 70.68 67.9235 70.36 69.4969 70.36C71.3369 70.36 73.0035 70.8267 74.4969 71.76C75.9902 72.6933 77.1635 74.0267 78.0169 75.76C78.8969 77.4933 79.3369 79.5067 79.3369 81.8C79.3369 84.0933 78.8969 86.12 78.0169 87.88C77.1635 89.6133 75.9902 90.96 74.4969 91.92C73.0035 92.8533 71.3369 93.32 69.4969 93.32C67.9502 93.32 66.5769 93 65.3769 92.36C64.2035 91.72 63.2835 90.8933 62.6169 89.88V103.64H55.7769V70.68H62.6169V73.84ZM72.3769 81.8C72.3769 80.0933 71.8969 78.76 70.9369 77.8C70.0035 76.8133 68.8435 76.32 67.4569 76.32C66.0969 76.32 64.9369 76.8133 63.9769 77.8C63.0435 78.7867 62.5769 80.1333 62.5769 81.84C62.5769 83.5467 63.0435 84.8933 63.9769 85.88C64.9369 86.8667 66.0969 87.36 67.4569 87.36C68.8169 87.36 69.9769 86.8667 70.9369 85.88C71.8969 84.8667 72.3769 83.5067 72.3769 81.8ZM93.0853 93.32C90.8986 93.32 88.9253 92.8533 87.1653 91.92C85.432 90.9867 84.0586 89.6533 83.0453 87.92C82.0586 86.1867 81.5653 84.16 81.5653 81.84C81.5653 79.5467 82.072 77.5333 83.0853 75.8C84.0986 74.04 85.4853 72.6933 87.2453 71.76C89.0053 70.8267 90.9786 70.36 93.1653 70.36C95.352 70.36 97.3253 70.8267 99.0853 71.76C100.845 72.6933 102.232 74.04 103.245 75.8C104.259 77.5333 104.765 79.5467 104.765 81.84C104.765 84.1333 104.245 86.16 103.205 87.92C102.192 89.6533 100.792 90.9867 99.0053 91.92C97.2453 92.8533 95.272 93.32 93.0853 93.32ZM93.0853 87.4C94.392 87.4 95.4986 86.92 96.4053 85.96C97.3386 85 97.8053 83.6267 97.8053 81.84C97.8053 80.0533 97.352 78.68 96.4453 77.72C95.5653 76.76 94.472 76.28 93.1653 76.28C91.832 76.28 90.7253 76.76 89.8453 77.72C88.9653 78.6533 88.5253 80.0267 88.5253 81.84C88.5253 83.6267 88.952 85 89.8053 85.96C90.6853 86.92 91.7786 87.4 93.0853 87.4ZM111.834 68.36C110.634 68.36 109.647 68.0133 108.874 67.32C108.127 66.6 107.754 65.72 107.754 64.68C107.754 63.6133 108.127 62.7333 108.874 62.04C109.647 61.32 110.634 60.96 111.834 60.96C113.007 60.96 113.967 61.32 114.714 62.04C115.487 62.7333 115.874 63.6133 115.874 64.68C115.874 65.72 115.487 66.6 114.714 67.32C113.967 68.0133 113.007 68.36 111.834 68.36ZM115.234 70.68V93H108.394V70.68H115.234ZM133.791 70.44C136.404 70.44 138.484 71.2933 140.031 73C141.604 74.68 142.391 77 142.391 79.96V93H135.591V80.88C135.591 79.3867 135.204 78.2267 134.431 77.4C133.658 76.5733 132.618 76.16 131.311 76.16C130.004 76.16 128.964 76.5733 128.191 77.4C127.418 78.2267 127.031 79.3867 127.031 80.88V93H120.191V70.68H127.031V73.64C127.724 72.6533 128.658 71.88 129.831 71.32C131.004 70.7333 132.324 70.44 133.791 70.44ZM159.584 87.2V93H156.104C153.624 93 151.691 92.4 150.304 91.2C148.917 89.9733 148.224 87.9867 148.224 85.24V76.36H145.504V70.68H148.224V65.24H155.064V70.68H159.544V76.36H155.064V85.32C155.064 85.9867 155.224 86.4667 155.544 86.76C155.864 87.0533 156.397 87.2 157.144 87.2H159.584ZM191.874 70.44C194.647 70.44 196.847 71.28 198.474 72.96C200.127 74.64 200.954 76.9733 200.954 79.96V93H194.154V80.88C194.154 79.44 193.767 78.3333 192.994 77.56C192.247 76.76 191.207 76.36 189.874 76.36C188.541 76.36 187.487 76.76 186.714 77.56C185.967 78.3333 185.594 79.44 185.594 80.88V93H178.794V80.88C178.794 79.44 178.407 78.3333 177.634 77.56C176.887 76.76 175.847 76.36 174.514 76.36C173.181 76.36 172.127 76.76 171.354 77.56C170.607 78.3333 170.234 79.44 170.234 80.88V93H163.394V70.68H170.234V73.48C170.927 72.5467 171.834 71.8133 172.954 71.28C174.074 70.72 175.341 70.44 176.754 70.44C178.434 70.44 179.927 70.8 181.234 71.52C182.567 72.24 183.607 73.2667 184.354 74.6C185.127 73.3733 186.181 72.3733 187.514 71.6C188.847 70.8267 190.301 70.44 191.874 70.44ZM226.778 81.48C226.778 82.12 226.738 82.7867 226.658 83.48H211.178C211.284 84.8667 211.724 85.9333 212.498 86.68C213.298 87.4 214.271 87.76 215.418 87.76C217.124 87.76 218.311 87.04 218.978 85.6H226.258C225.884 87.0667 225.204 88.3867 224.218 89.56C223.258 90.7333 222.044 91.6533 220.578 92.32C219.111 92.9867 217.471 93.32 215.658 93.32C213.471 93.32 211.524 92.8533 209.818 91.92C208.111 90.9867 206.778 89.6533 205.818 87.92C204.858 86.1867 204.378 84.16 204.378 81.84C204.378 79.52 204.844 77.4933 205.778 75.76C206.738 74.0267 208.071 72.6933 209.778 71.76C211.484 70.8267 213.444 70.36 215.658 70.36C217.818 70.36 219.738 70.8133 221.418 71.72C223.098 72.6267 224.404 73.92 225.338 75.6C226.298 77.28 226.778 79.24 226.778 81.48ZM219.778 79.68C219.778 78.5067 219.378 77.5733 218.578 76.88C217.778 76.1867 216.778 75.84 215.578 75.84C214.431 75.84 213.458 76.1733 212.658 76.84C211.884 77.5067 211.404 78.4533 211.218 79.68H219.778ZM243.986 70.44C246.6 70.44 248.68 71.2933 250.226 73C251.8 74.68 252.586 77 252.586 79.96V93H245.786V80.88C245.786 79.3867 245.4 78.2267 244.626 77.4C243.853 76.5733 242.813 76.16 241.506 76.16C240.2 76.16 239.16 76.5733 238.386 77.4C237.613 78.2267 237.226 79.3867 237.226 80.88V93H230.386V70.68H237.226V73.64C237.92 72.6533 238.853 71.88 240.026 71.32C241.2 70.7333 242.52 70.44 243.986 70.44ZM269.779 87.2V93H266.299C263.819 93 261.886 92.4 260.499 91.2C259.113 89.9733 258.419 87.9867 258.419 85.24V76.36H255.699V70.68H258.419V65.24H265.259V70.68H269.739V76.36H265.259V85.32C265.259 85.9867 265.419 86.4667 265.739 86.76C266.059 87.0533 266.593 87.2 267.339 87.2H269.779ZM0.12 141.8C0.12 139.507 0.546667 137.493 1.4 135.76C2.28 134.027 3.46667 132.693 4.96 131.76C6.45333 130.827 8.12 130.36 9.96 130.36C11.5333 130.36 12.9067 130.68 14.08 131.32C15.28 131.96 16.2 132.8 16.84 133.84V130.68H23.68V153H16.84V149.84C16.1733 150.88 15.24 151.72 14.04 152.36C12.8667 153 11.4933 153.32 9.92 153.32C8.10667 153.32 6.45333 152.853 4.96 151.92C3.46667 150.96 2.28 149.613 1.4 147.88C0.546667 146.12 0.12 144.093 0.12 141.8ZM16.84 141.84C16.84 140.133 16.36 138.787 15.4 137.8C14.4667 136.813 13.32 136.32 11.96 136.32C10.6 136.32 9.44 136.813 8.48 137.8C7.54667 138.76 7.08 140.093 7.08 141.8C7.08 143.507 7.54667 144.867 8.48 145.88C9.44 146.867 10.6 147.36 11.96 147.36C13.32 147.36 14.4667 146.867 15.4 145.88C16.36 144.893 16.84 143.547 16.84 141.84ZM48.305 136.36H44.625V153H37.785V136.36H35.305V130.68H37.785V130.04C37.785 127.293 38.5717 125.213 40.145 123.8C41.7183 122.36 44.025 121.64 47.065 121.64C47.5717 121.64 47.945 121.653 48.185 121.68V127.48C46.8783 127.4 45.9583 127.587 45.425 128.04C44.8917 128.493 44.625 129.307 44.625 130.48V130.68H48.305V136.36ZM72.5591 141.48C72.5591 142.12 72.5191 142.787 72.4391 143.48H56.9591C57.0657 144.867 57.5057 145.933 58.2791 146.68C59.0791 147.4 60.0524 147.76 61.1991 147.76C62.9057 147.76 64.0924 147.04 64.7591 145.6H72.0391C71.6657 147.067 70.9857 148.387 69.9991 149.56C69.0391 150.733 67.8257 151.653 66.3591 152.32C64.8924 152.987 63.2524 153.32 61.4391 153.32C59.2524 153.32 57.3057 152.853 55.5991 151.92C53.8924 150.987 52.5591 149.653 51.5991 147.92C50.6391 146.187 50.1591 144.16 50.1591 141.84C50.1591 139.52 50.6257 137.493 51.5591 135.76C52.5191 134.027 53.8524 132.693 55.5591 131.76C57.2657 130.827 59.2257 130.36 61.4391 130.36C63.5991 130.36 65.5191 130.813 67.1991 131.72C68.8791 132.627 70.1857 133.92 71.1191 135.6C72.0791 137.28 72.5591 139.24 72.5591 141.48ZM65.5591 139.68C65.5591 138.507 65.1591 137.573 64.3591 136.88C63.5591 136.187 62.5591 135.84 61.3591 135.84C60.2124 135.84 59.2391 136.173 58.4391 136.84C57.6657 137.507 57.1857 138.453 56.9991 139.68H65.5591ZM108.208 130.68L102.168 153H94.6075L91.0875 138.52L87.4475 153H79.9275L73.8475 130.68H80.6875L83.8475 146.64L87.6075 130.68H94.8475L98.6475 146.56L101.768 130.68H108.208ZM117.933 141.84C117.933 139.52 118.399 137.493 119.333 135.76C120.293 134.027 121.613 132.693 123.293 131.76C124.999 130.827 126.946 130.36 129.133 130.36C131.933 130.36 134.266 131.093 136.133 132.56C138.026 134.027 139.266 136.093 139.853 138.76H132.573C131.959 137.053 130.773 136.2 129.013 136.2C127.759 136.2 126.759 136.693 126.013 137.68C125.266 138.64 124.893 140.027 124.893 141.84C124.893 143.653 125.266 145.053 126.013 146.04C126.759 147 127.759 147.48 129.013 147.48C130.773 147.48 131.959 146.627 132.573 144.92H139.853C139.266 147.533 138.026 149.587 136.133 151.08C134.239 152.573 131.906 153.32 129.133 153.32C126.946 153.32 124.999 152.853 123.293 151.92C121.613 150.987 120.293 149.653 119.333 147.92C118.399 146.187 117.933 144.16 117.933 141.84ZM150.351 123.4V153H143.511V123.4H150.351ZM158.748 128.36C157.548 128.36 156.561 128.013 155.788 127.32C155.041 126.6 154.668 125.72 154.668 124.68C154.668 123.613 155.041 122.733 155.788 122.04C156.561 121.32 157.548 120.96 158.748 120.96C159.921 120.96 160.881 121.32 161.628 122.04C162.401 122.733 162.788 123.613 162.788 124.68C162.788 125.72 162.401 126.6 161.628 127.32C160.881 128.013 159.921 128.36 158.748 128.36ZM162.148 130.68V153H155.308V130.68H162.148ZM165.745 141.84C165.745 139.52 166.212 137.493 167.145 135.76C168.105 134.027 169.425 132.693 171.105 131.76C172.812 130.827 174.758 130.36 176.945 130.36C179.745 130.36 182.078 131.093 183.945 132.56C185.838 134.027 187.078 136.093 187.665 138.76H180.385C179.772 137.053 178.585 136.2 176.825 136.2C175.572 136.2 174.572 136.693 173.825 137.68C173.078 138.64 172.705 140.027 172.705 141.84C172.705 143.653 173.078 145.053 173.825 146.04C174.572 147 175.572 147.48 176.825 147.48C178.585 147.48 179.772 146.627 180.385 144.92H187.665C187.078 147.533 185.838 149.587 183.945 151.08C182.052 152.573 179.718 153.32 176.945 153.32C174.758 153.32 172.812 152.853 171.105 151.92C169.425 150.987 168.105 149.653 167.145 147.92C166.212 146.187 165.745 144.16 165.745 141.84ZM204.964 153L198.164 143.64V153H191.324V123.4H198.164V139.76L204.924 130.68H213.364L204.084 141.88L213.444 153H204.964ZM225.13 153.32C223.184 153.32 221.45 152.987 219.93 152.32C218.41 151.653 217.21 150.747 216.33 149.6C215.45 148.427 214.957 147.12 214.85 145.68H221.61C221.69 146.453 222.05 147.08 222.69 147.56C223.33 148.04 224.117 148.28 225.05 148.28C225.904 148.28 226.557 148.12 227.01 147.8C227.49 147.453 227.73 147.013 227.73 146.48C227.73 145.84 227.397 145.373 226.73 145.08C226.064 144.76 224.984 144.413 223.49 144.04C221.89 143.667 220.557 143.28 219.49 142.88C218.424 142.453 217.504 141.8 216.73 140.92C215.957 140.013 215.57 138.8 215.57 137.28C215.57 136 215.917 134.84 216.61 133.8C217.33 132.733 218.37 131.893 219.73 131.28C221.117 130.667 222.757 130.36 224.65 130.36C227.45 130.36 229.65 131.053 231.25 132.44C232.877 133.827 233.81 135.667 234.05 137.96H227.73C227.624 137.187 227.277 136.573 226.69 136.12C226.13 135.667 225.384 135.44 224.45 135.44C223.65 135.44 223.037 135.6 222.61 135.92C222.184 136.213 221.97 136.627 221.97 137.16C221.97 137.8 222.304 138.28 222.97 138.6C223.664 138.92 224.73 139.24 226.17 139.56C227.824 139.987 229.17 140.413 230.21 140.84C231.25 141.24 232.157 141.907 232.93 142.84C233.73 143.747 234.144 144.973 234.17 146.52C234.17 147.827 233.797 149 233.05 150.04C232.33 151.053 231.277 151.853 229.89 152.44C228.53 153.027 226.944 153.32 225.13 153.32Z" fill="url(#paint0_linear_3_37)"/>
<path d="M199.651 21.8C199.651 19.5067 200.078 17.4933 200.931 15.76C201.811 14.0267 202.998 12.6933 204.491 11.76C205.985 10.8267 207.651 10.36 209.491 10.36C210.958 10.36 212.291 10.6667 213.491 11.28C214.718 11.8933 215.678 12.72 216.371 13.76V3.4H223.211V33H216.371V29.8C215.731 30.8667 214.811 31.72 213.611 32.36C212.438 33 211.065 33.32 209.491 33.32C207.651 33.32 205.985 32.8533 204.491 31.92C202.998 30.96 201.811 29.6133 200.931 27.88C200.078 26.12 199.651 24.0933 199.651 21.8ZM216.371 21.84C216.371 20.1333 215.891 18.7867 214.931 17.8C213.998 16.8133 212.851 16.32 211.491 16.32C210.131 16.32 208.971 16.8133 208.011 17.8C207.078 18.76 206.611 20.0933 206.611 21.8C206.611 23.5067 207.078 24.8667 208.011 25.88C208.971 26.8667 210.131 27.36 211.491 27.36C212.851 27.36 213.998 26.8667 214.931 25.88C215.891 24.8933 216.371 23.5467 216.371 21.84ZM249.2 21.48C249.2 22.12 249.16 22.7867 249.08 23.48H233.6C233.706 24.8667 234.146 25.9333 234.92 26.68C235.72 27.4 236.693 27.76 237.84 27.76C239.546 27.76 240.733 27.04 241.4 25.6H248.68C248.306 27.0667 247.626 28.3867 246.64 29.56C245.68 30.7333 244.466 31.6533 243 32.32C241.533 32.9867 239.893 33.32 238.08 33.32C235.893 33.32 233.946 32.8533 232.24 31.92C230.533 30.9867 229.2 29.6533 228.24 27.92C227.28 26.1867 226.8 24.16 226.8 21.84C226.8 19.52 227.266 17.4933 228.2 15.76C229.16 14.0267 230.493 12.6933 232.2 11.76C233.906 10.8267 235.866 10.36 238.08 10.36C240.24 10.36 242.16 10.8133 243.84 11.72C245.52 12.6267 246.826 13.92 247.76 15.6C248.72 17.28 249.2 19.24 249.2 21.48ZM242.2 19.68C242.2 18.5067 241.8 17.5733 241 16.88C240.2 16.1867 239.2 15.84 238 15.84C236.853 15.84 235.88 16.1733 235.08 16.84C234.306 17.5067 233.826 18.4533 233.64 19.68H242.2ZM266.408 10.44C269.021 10.44 271.101 11.2933 272.648 13C274.221 14.68 275.008 17 275.008 19.96V33H268.208V20.88C268.208 19.3867 267.821 18.2267 267.048 17.4C266.275 16.5733 265.235 16.16 263.928 16.16C262.621 16.16 261.581 16.5733 260.808 17.4C260.035 18.2267 259.648 19.3867 259.648 20.88V33H252.808V10.68H259.648V13.64C260.341 12.6533 261.275 11.88 262.448 11.32C263.621 10.7333 264.941 10.44 266.408 10.44ZM292.201 27.2V33H288.721C286.241 33 284.308 32.4 282.921 31.2C281.535 29.9733 280.841 27.9867 280.841 25.24V16.36H278.121V10.68H280.841V5.24H287.681V10.68H292.161V16.36H287.681V25.32C287.681 25.9867 287.841 26.4667 288.161 26.76C288.481 27.0533 289.015 27.2 289.761 27.2H292.201ZM299.451 8.36C298.251 8.36 297.265 8.01333 296.491 7.32C295.745 6.6 295.371 5.72 295.371 4.68C295.371 3.61333 295.745 2.73333 296.491 2.04C297.265 1.32 298.251 0.959998 299.451 0.959998C300.625 0.959998 301.585 1.32 302.331 2.04C303.105 2.73333 303.491 3.61333 303.491 4.68C303.491 5.72 303.105 6.6 302.331 7.32C301.585 8.01333 300.625 8.36 299.451 8.36ZM302.851 10.68V33H296.011V10.68H302.851ZM316.888 33.32C314.941 33.32 313.208 32.9867 311.688 32.32C310.168 31.6533 308.968 30.7467 308.088 29.6C307.208 28.4267 306.715 27.12 306.608 25.68H313.368C313.448 26.4533 313.808 27.08 314.448 27.56C315.088 28.04 315.875 28.28 316.808 28.28C317.661 28.28 318.315 28.12 318.768 27.8C319.248 27.4533 319.488 27.0133 319.488 26.48C319.488 25.84 319.155 25.3733 318.488 25.08C317.821 24.76 316.741 24.4133 315.248 24.04C313.648 23.6667 312.315 23.28 311.248 22.88C310.181 22.4533 309.261 21.8 308.488 20.92C307.715 20.0133 307.328 18.8 307.328 17.28C307.328 16 307.675 14.84 308.368 13.8C309.088 12.7333 310.128 11.8933 311.488 11.28C312.875 10.6667 314.515 10.36 316.408 10.36C319.208 10.36 321.408 11.0533 323.008 12.44C324.635 13.8267 325.568 15.6667 325.808 17.96H319.488C319.381 17.1867 319.035 16.5733 318.448 16.12C317.888 15.6667 317.141 15.44 316.208 15.44C315.408 15.44 314.795 15.6 314.368 15.92C313.941 16.2133 313.728 16.6267 313.728 17.16C313.728 17.8 314.061 18.28 314.728 18.6C315.421 18.92 316.488 19.24 317.928 19.56C319.581 19.9867 320.928 20.4133 321.968 20.84C323.008 21.24 323.915 21.9067 324.688 22.84C325.488 23.7467 325.901 24.9733 325.928 26.52C325.928 27.8267 325.555 29 324.808 30.04C324.088 31.0533 323.035 31.8533 321.648 32.44C320.288 33.0267 318.701 33.32 316.888 33.32ZM342.553 27.2V33H339.073C336.593 33 334.659 32.4 333.273 31.2C331.886 29.9733 331.193 27.9867 331.193 25.24V16.36H328.473V10.68H331.193V5.24H338.033V10.68H342.513V16.36H338.033V25.32C338.033 25.9867 338.193 26.4667 338.513 26.76C338.833 27.0533 339.366 27.2 340.113 27.2H342.553Z" fill="url(#paint1_linear_3_37)"/>
<defs>
<linearGradient id="paint0_linear_3_37" x1="-52.8443" y1="-81.5883" x2="1268.89" y2="444.568" gradientUnits="userSpaceOnUse">
<stop stop-color="#3A8EF6"/>
<stop offset="1" stop-color="#6F3AFA"/>
</linearGradient>
<linearGradient id="paint1_linear_3_37" x1="-52.8443" y1="-81.5883" x2="1268.89" y2="444.568" gradientUnits="userSpaceOnUse">
<stop stop-color="#3A8EF6"/>
<stop offset="1" stop-color="#F2F7FF"/>
</linearGradient>
</defs>
</svg>
