<svg width="130" height="209" viewBox="0 0 130 209" fill="none" xmlns="http://www.w3.org/2000/svg">
<path d="M129 1.99768C104.87 42.6579 134.255 100.989 116.605 120.591C98.9551 140.193 60.6782 66.095 76.1439 55.5769C91.6095 45.0589 124.106 120.273 96.4643 140.739C68.8222 161.206 18.2957 98.5219 35.4493 84.8903C52.603 71.2587 97.6405 129.903 72.9134 163.327C48.1862 196.751 2.95422 204.334 2.95422 204.334" stroke="url(#paint0_linear_3_73)" stroke-width="2" stroke-linecap="round" stroke-linejoin="round"/>
<path d="M14.1491 195.097C14.1491 195.097 7.4515 202.007 1.70518 204.79C9.13037 204.79 16.6978 207.827 16.6978 207.827" stroke="url(#paint1_linear_3_73)" stroke-width="2" stroke-linecap="round" stroke-linejoin="round"/>
<defs>
<linearGradient id="paint0_linear_3_73" x1="-6.85772" y1="-77.3501" x2="281.636" y2="-58.0145" gradientUnits="userSpaceOnUse">
<stop stop-color="#3A8EF6"/>
<stop offset="1" stop-color="#6F3AFA"/>
</linearGradient>
<linearGradient id="paint1_linear_3_73" x1="4.03354" y1="188.109" x2="36.8259" y2="199.892" gradientUnits="userSpaceOnUse">
<stop stop-color="#3A8EF6"/>
<stop offset="1" stop-color="#6F3AFA"/>
</linearGradient>
</defs>
</svg>
